# xmcd
#
# Track frame offsets:
#	150
#	19152
#	37374
#	54758
#	71390
#	90699
#	116394
#	134986
#	153068
#	169755
#	188771
#	201288
#	221142
#	239114
#	261344
#	275761
#
# Disc length: 3938 seconds
#
# Revision: 0
# Processed by: cddbd v1.5.2PL0 Copyright (c) Steve Scherf et al.
# Submitted via: EasyCDDAExtractor 11.0.2.1
#
DISCID=f60f6010
DTITLE=Various Artist - Best Pop Hits CD4
DYEAR=1900
DGENRE=
TTITLE0=Michael Learns To Rock - That's Why
TTITLE1=Eternal - Stay
TTITLE2=Charles and Eddie - 24-7-365
TTITLE3=The Moffatts - I'll Be There For You
TTITLE4=Enigma - Return To Innocence
TTITLE5=Babylon Zoo - Spaceman
TTITLE6=Belinda Carlisle - In Too Deep
TTITLE7=Meredith Brooks - Bitch
TTITLE8=Chumbawamba - Tubthumping
TTITLE9=911 - The Way We Find Love
TTITLE10=Joe Cocker - You Are So Beautiful
TTITLE11=D'Angelo - Brown Sugar
TTITLE12=Mansun - Six
TTITLE13=Guru - No Time To Play
TTITLE14=Future Sound Of London - We Have Explosive
TTITLE15=Michael Learns To Rock - 25 Minutes
EXTD=
EXTT0=
EXTT1=
EXTT2=
EXTT3=
EXTT4=
EXTT5=
EXTT6=
EXTT7=
EXTT8=
EXTT9=
EXTT10=
EXTT11=
EXTT12=
EXTT13=
EXTT14=
EXTT15=
PLAYORDER=
